<svg width="194" height="69" viewBox="0 0 194 69" fill="none" xmlns="http://www.w3.org/2000/svg">
<path d="M35.3716 0C38.8002 19.1066 20.1515 37.6915 0.938049 34.2662C3.14697 33.8637 5.32915 33.3275 7.47248 32.6606C9.54874 32.009 11.5715 31.1994 13.5229 30.2388C25.5027 24.4319 33.2203 12.9786 35.3716 0Z" fill="white"/>
<path d="M35.4523 68.6128C32.0372 49.5061 50.6859 30.9213 69.8993 34.3466C67.6918 34.7554 65.51 35.2915 63.3649 35.9522C61.2875 36.6059 59.2645 37.4201 57.3145 38.3873C45.3212 44.1943 37.617 55.6475 35.4523 68.6128Z" fill="white"/>
<path d="M99.6942 8.93798H86.5178C85.97 8.8974 85.42 8.97703 84.9065 9.17124C84.3931 9.36544 83.9287 9.66949 83.5463 10.0619C82.8714 10.8714 82.5218 11.901 82.5648 12.952C82.5324 13.8528 82.7711 14.7427 83.2505 15.5076C83.5125 15.872 83.8471 16.1788 84.2334 16.409C84.6196 16.6392 85.0494 16.7878 85.4959 16.8456V19.2272C84.7468 19.2308 84.0081 19.0516 83.3447 18.7054C82.6745 18.3733 82.0726 17.9195 81.5699 17.3674C81.0469 16.7925 80.6365 16.1255 80.3598 15.4005C80.0606 14.6327 79.9101 13.8156 79.9161 12.9921C79.9045 12.1073 80.0548 11.2277 80.3598 10.3964C80.6298 9.66026 81.0408 8.98322 81.5699 8.40278C82.069 7.83545 82.683 7.37949 83.3716 7.06478C84.0586 6.76898 84.8013 6.62299 85.5497 6.63662H99.6808L99.6942 8.93798ZM80.2791 27.1214H93.4556C94.0048 27.165 94.5569 27.0855 95.0711 26.8887C95.5854 26.6918 96.0487 26.3827 96.427 25.9841C97.1116 25.1845 97.4671 24.1569 97.422 23.1074C97.4606 22.2082 97.2162 21.3195 96.7228 20.5652C96.4601 20.2045 96.1271 19.9001 95.7436 19.6703C95.3601 19.4404 94.9341 19.2897 94.4909 19.2272V16.8589C95.2337 16.8586 95.9662 17.0328 96.6287 17.3674C97.3001 17.7037 97.9058 18.1569 98.4169 18.7054C98.9402 19.2901 99.3505 19.966 99.627 20.699C99.9227 21.4631 100.073 22.2752 100.071 23.094C100.077 23.9796 99.9219 24.859 99.6136 25.6897C99.3289 26.4208 98.9093 27.0924 98.3766 27.67C97.8742 28.2338 97.261 28.6892 96.5749 29.008C95.8947 29.3131 95.1563 29.4683 94.4102 29.4629H80.2791V27.1214Z" fill="white"/>
<path d="M104.911 29.4229V6.63674H119.405C120.163 6.63469 120.91 6.81365 121.583 7.15856C122.265 7.51924 122.872 8.005 123.371 8.59022C123.909 9.21986 124.328 9.94046 124.608 10.7176C124.912 11.5773 125.067 12.4823 125.066 13.3936C125.07 14.2213 124.919 15.0424 124.622 15.8154C124.337 16.5604 123.928 17.2524 123.412 17.8626C122.92 18.4472 122.317 18.9292 121.637 19.2808C120.976 19.6359 120.237 19.82 119.486 19.816H115.627V17.5414H119.042C119.573 17.5585 120.097 17.4189 120.548 17.14C120.964 16.8758 121.32 16.5297 121.597 16.1232C121.875 15.7157 122.08 15.2628 122.202 14.7852C122.316 14.3478 122.379 13.8989 122.39 13.4472C122.386 12.9339 122.305 12.4242 122.148 11.9352C121.996 11.4251 121.765 10.9419 121.462 10.5036C121.178 10.0839 120.812 9.72458 120.387 9.44654C119.955 9.16727 119.449 9.02283 118.935 9.03176H107.479V29.4229H104.911Z" fill="white"/>
<path d="M124.541 29.4227L136.642 5.41895L148.649 29.4227H132.245L133.819 27.1213H144.575L136.642 10.8512L127.392 29.3692L124.541 29.4227Z" fill="white"/>
<path d="M149.469 18.0227C149.457 16.4759 149.773 14.944 150.397 13.527C150.978 12.1629 151.818 10.9228 152.871 9.87427C153.929 8.82697 155.18 7.99125 156.555 7.41235C157.995 6.80315 159.547 6.49791 161.113 6.51589C162.256 6.51611 163.393 6.68289 164.487 7.01095C165.541 7.33384 166.542 7.80707 167.459 8.41585C168.359 9.03225 169.181 9.75565 169.906 10.57C170.609 11.3838 171.205 12.283 171.681 13.246L169.624 14.584C169.28 13.7814 168.828 13.0295 168.279 12.3496C167.675 11.6693 166.983 11.071 166.222 10.57C165.482 10.0616 164.671 9.66485 163.815 9.39259C162.947 9.10895 162.04 8.96443 161.126 8.96443C159.903 8.96231 158.693 9.21766 157.576 9.71371C156.481 10.1945 155.483 10.8701 154.632 11.7073C153.794 12.5414 153.123 13.5268 152.655 14.6108C152.166 15.6963 151.914 16.873 151.916 18.0628C151.906 19.2678 152.163 20.4601 152.669 21.555C153.143 22.6237 153.813 23.5949 154.645 24.4183C155.489 25.2495 156.478 25.9205 157.563 26.3986C158.683 26.8813 159.892 27.1273 161.113 27.1211C161.954 27.1266 162.792 27.0094 163.6 26.7732C164.392 26.5517 165.151 26.2278 165.859 25.8099C166.56 25.3667 167.202 24.8361 167.768 24.231C168.346 23.6692 168.835 23.0242 169.22 22.3177L170.982 24.231C169.969 25.8314 168.586 27.1667 166.948 28.1246C165.169 29.1225 163.154 29.6262 161.113 29.583C159.547 29.5903 157.996 29.2807 156.555 28.6732C155.183 28.0894 153.933 27.2543 152.871 26.2113C151.824 25.158 150.985 23.9191 150.397 22.5585C149.768 21.1291 149.452 19.583 149.469 18.0227Z" fill="white"/>
<path d="M176.521 6.63672H194V8.93808H179.103V27.1215H193.96V29.4229H176.481L176.521 6.63672ZM193.664 19.816H182.692V17.5414H193.664V19.816Z" fill="white"/>
<path d="M79.9161 39.1899H99.9228V41.4913H91.1834V61.9895H88.6153V41.4913H79.9161V39.1899Z" fill="white"/>
<path d="M104.951 39.1899H107.56V61.936H104.951V39.1899Z" fill="white"/>
<path d="M115.264 61.9897H112.696V39.2437H117.093L126.235 57.882L135.486 39.2437H139.963V61.9897H137.395V41.0901L126.235 63.1939L115.264 41.2774V61.9897Z" fill="white"/>
<path d="M145.099 39.1899H162.578V41.4913H147.681V59.6881H162.538V61.9895H145.059L145.099 39.1899ZM162.188 52.3291H151.217V50.0813H162.188V52.3291Z" fill="white"/>
<path d="M167.284 40.0465C167.286 39.8629 167.323 39.6814 167.392 39.5113C167.459 39.3565 167.555 39.2158 167.674 39.0965C167.793 38.9673 167.94 38.8667 168.104 38.8021C168.275 38.7334 168.458 38.6971 168.642 38.6951C168.771 38.6746 168.903 38.6746 169.032 38.6951C169.158 38.731 169.277 38.79 169.382 38.869C169.487 38.9345 169.583 39.0157 169.664 39.1099C169.749 39.2071 169.822 39.3151 169.879 39.431L169.637 39.5915C169.596 39.4951 169.542 39.405 169.476 39.3239C169.406 39.2458 169.33 39.1742 169.247 39.1099C169.159 39.0545 169.064 39.0096 168.965 38.9761C168.858 38.9632 168.749 38.9632 168.642 38.9761C168.499 38.9815 168.357 39.0133 168.225 39.0697C168.1 39.1249 167.987 39.202 167.889 39.2972C167.793 39.3991 167.716 39.5168 167.661 39.6451C167.595 39.7684 167.562 39.9068 167.566 40.0465C167.564 40.1859 167.596 40.3239 167.661 40.4479C167.716 40.5721 167.793 40.6853 167.889 40.7824C167.987 40.8776 168.1 40.9546 168.225 41.0098C168.355 41.0738 168.498 41.106 168.642 41.1035C168.74 41.1165 168.84 41.1165 168.938 41.1035C169.029 41.0772 169.115 41.0365 169.193 40.9831C169.278 40.9371 169.355 40.8784 169.422 40.8091C169.491 40.7419 169.55 40.6653 169.597 40.5817L169.798 40.7957C169.675 40.983 169.509 41.1388 169.314 41.2507C169.112 41.372 168.878 41.4325 168.642 41.4246C168.458 41.4226 168.275 41.3863 168.104 41.3176C167.944 41.2523 167.798 41.1569 167.674 41.0366C167.556 40.9112 167.46 40.7663 167.392 40.6084C167.319 40.43 167.282 40.239 167.284 40.0465Z" fill="white"/>
<path d="M168.575 42.963C167.805 42.963 167.066 42.6585 166.521 42.1165C165.977 41.5745 165.671 40.8394 165.671 40.0729C165.671 39.3052 165.976 38.5687 166.52 38.0246C167.065 37.4804 167.803 37.173 168.575 37.1694C169.349 37.1694 170.091 37.4753 170.638 38.0198C171.185 38.5643 171.492 39.3028 171.492 40.0729C171.489 40.8406 171.18 41.5757 170.633 42.1173C170.086 42.6589 169.346 42.963 168.575 42.963ZM168.575 37.4237C167.862 37.4237 167.178 37.7056 166.673 38.2074C166.169 38.7093 165.886 39.3899 165.886 40.0997C165.886 40.8094 166.169 41.49 166.673 41.9919C167.178 42.4937 167.862 42.7757 168.575 42.7757C169.288 42.7757 169.972 42.4937 170.476 41.9919C170.981 41.49 171.264 40.8094 171.264 40.0997C171.267 39.746 171.2 39.3951 171.067 39.0674C170.933 38.7396 170.736 38.4414 170.486 38.1901C170.236 37.9388 169.938 37.7393 169.61 37.6031C169.282 37.467 168.93 37.3969 168.575 37.3969V37.4237Z" fill="white"/>
</svg>
