<svg width="21" height="20" viewBox="0 0 21 20" fill="none" xmlns="http://www.w3.org/2000/svg">
<path d="M20.0442 7.1964C20.0368 6.32108 19.9797 5.44684 19.8729 4.57798C19.7399 3.51306 19.2626 2.52035 18.5133 1.75006C17.7639 0.979768 16.7833 0.473833 15.7198 0.30887C14.5249 0.131076 13.3165 0.0596073 12.109 0.0953794C9.73984 0.0953794 7.37071 0.095428 4.97302 0.323114C3.94964 0.440379 2.99188 0.885032 2.24319 1.59051C1.49449 2.29598 0.995136 3.22431 0.819904 4.23646C0.661875 4.8841 0.580438 5.54798 0.577273 6.21451C0.425062 9.22803 0.501401 12.2487 0.805629 15.2508C0.953505 16.2565 1.4218 17.1881 2.14137 17.9082C2.86093 18.6282 3.79363 19.0984 4.80176 19.2495C6.57147 19.5056 8.36973 19.5341 9.79693 19.6195C11.7522 19.6195 13.3649 19.5056 14.9491 19.406C15.6313 19.3931 16.3042 19.2457 16.9289 18.9721C17.5536 18.6985 18.1178 18.3041 18.5888 17.8119C19.0599 17.3198 19.4285 16.7395 19.6734 16.1045C19.9183 15.4695 20.0346 14.7924 20.0156 14.1123C20.1583 11.7928 20.0584 9.48749 20.0442 7.1964ZM18.2316 13.97C18.2554 14.4775 18.1707 14.9844 17.9831 15.4569C17.7956 15.9293 17.5095 16.3566 17.1438 16.7104C16.7781 17.0643 16.3411 17.3367 15.8619 17.5094C15.3826 17.6822 14.8721 17.7514 14.3639 17.7126C12.9368 17.7126 11.6665 17.7126 10.3107 17.7126C8.88352 17.7126 7.45633 17.7126 6.12905 17.7126C5.65285 17.7223 5.17961 17.6358 4.7379 17.4581C4.29618 17.2804 3.89516 17.0154 3.55903 16.6789C3.2229 16.3424 2.95865 15.9415 2.78223 15.5004C2.6058 15.0592 2.52086 14.5871 2.53253 14.1123C2.47544 11.2663 2.47544 8.42019 2.53253 5.57412C2.49906 5.10823 2.5626 4.64047 2.71915 4.20024C2.8757 3.76002 3.12188 3.35685 3.44223 3.01606C3.76257 2.67527 4.15015 2.4042 4.5806 2.21995C5.01105 2.03569 5.47508 1.94224 5.94351 1.9454C8.8978 1.83155 11.8806 1.83155 14.8349 1.9454C15.3061 1.94373 15.7724 2.03978 16.2043 2.2275C16.6361 2.41522 17.0241 2.69049 17.3436 3.03578C17.663 3.38106 17.907 3.78882 18.0598 4.23316C18.2127 4.67751 18.2712 5.14867 18.2316 5.61677C18.303 8.39169 18.303 11.1951 18.2316 13.97Z" fill="white"/>
<path d="M15.5343 3.46789C15.3787 3.46601 15.2243 3.49478 15.0799 3.5524C14.9354 3.61003 14.8038 3.69541 14.6925 3.80376C14.5812 3.91212 14.4923 4.04134 14.4311 4.18393C14.3698 4.32652 14.3373 4.47968 14.3354 4.63479C14.3463 4.94705 14.4765 5.24335 14.6994 5.46296C14.9223 5.68256 15.221 5.80886 15.5343 5.81594C15.6892 5.81595 15.8425 5.78531 15.9855 5.72578C16.1284 5.66625 16.258 5.57899 16.3669 5.46913C16.4758 5.35926 16.5617 5.22897 16.6196 5.08575C16.6776 4.94253 16.7065 4.78923 16.7046 4.63479C16.7085 4.48049 16.6809 4.32701 16.6235 4.18367C16.5661 4.04033 16.48 3.91013 16.3705 3.80098C16.2611 3.69184 16.1305 3.60601 15.9867 3.54876C15.843 3.4915 15.6891 3.46399 15.5343 3.46789Z" fill="white"/>
<path d="M10.3536 4.81977C9.04467 4.83079 7.7921 5.35222 6.86388 6.27242C5.93566 7.19262 5.40553 8.43851 5.38693 9.74351C5.37366 10.4028 5.49222 11.0582 5.73569 11.6713C5.97916 12.2845 6.34267 12.8431 6.805 13.3147C7.26734 13.7863 7.81923 14.1614 8.42848 14.4181C9.03774 14.6747 9.69217 14.8078 10.3536 14.8095C11.0106 14.817 11.6626 14.6945 12.2717 14.449C12.8809 14.2035 13.4352 13.84 13.9024 13.3794C14.3697 12.9187 14.7407 12.3702 14.9938 11.7657C15.247 11.1611 15.3773 10.5125 15.3773 9.85737C15.3868 9.1956 15.2636 8.53854 15.0148 7.92493C14.7661 7.31132 14.3969 6.75346 13.9289 6.28415C13.4608 5.81483 12.9035 5.4436 12.2895 5.19212C11.6755 4.94064 11.0173 4.81401 10.3536 4.81977ZM10.3536 13.045C9.50048 13.03 8.6874 12.6816 8.08945 12.0748C7.4915 11.4679 7.15651 10.6511 7.15664 9.8004C7.16793 8.94991 7.51666 8.13854 8.1265 7.54381C8.73634 6.94908 9.55763 6.61945 10.4106 6.62705C10.8323 6.63077 11.2492 6.71727 11.6374 6.88162C12.0255 7.04598 12.3774 7.28493 12.673 7.58489C12.9685 7.88486 13.2019 8.23995 13.3598 8.62985C13.5177 9.01975 13.597 9.4369 13.5933 9.85737C13.5896 10.2821 13.5015 10.702 13.3342 11.0926C13.1668 11.4833 12.9235 11.837 12.6183 12.1333C12.3131 12.4297 11.9521 12.6628 11.556 12.8193C11.1599 12.9758 10.7367 13.0525 10.3107 13.045H10.3536Z" fill="white"/>
</svg>
