<svg width="23" height="19" viewBox="0 0 23 19" fill="none" xmlns="http://www.w3.org/2000/svg">
<g clip-path="url(#clip0_3_162)">
<path d="M22.5375 1.85518C21.9414 4.89751 21.2751 7.93989 20.6263 10.9645C20.188 13.0871 19.7496 15.1919 19.2937 17.3145C18.9956 18.6234 18.2942 18.8887 17.2071 18.0927C15.629 16.943 14.0685 15.7579 12.4729 14.5551C11.5085 15.4572 10.5967 16.324 9.64983 17.173L9.29915 17.0492C9.36063 16.3785 9.36063 15.7035 9.29915 15.0328C9.11616 14.1028 9.21382 13.1389 9.57953 12.2654C9.94524 11.392 10.5622 10.6492 11.3507 10.1331C13.7178 8.25822 15.8745 6.08268 18.1189 4.03088C18.3408 3.83629 18.546 3.62321 18.7326 3.39403L18.5748 3.16407C18.2447 3.31141 17.9227 3.47679 17.6104 3.65939L7.08982 10.3278C6.91345 10.4598 6.70712 10.5451 6.48966 10.576C6.2722 10.6069 6.05053 10.5824 5.84488 10.5046C4.49474 10.0447 3.10952 9.67333 1.74185 9.21345C1.39383 9.02382 1.06999 8.79215 0.777466 8.52359C1.07555 8.22289 1.3035 7.78069 1.65418 7.63919C4.35447 6.56022 7.05474 5.51667 9.75503 4.47308C13.4197 3.05804 17.0493 1.62528 20.7315 0.245618C21.1699 0.086426 21.9764 -0.03739 22.1518 0.245618C22.4666 0.71856 22.6034 1.2894 22.5375 1.85518Z" fill="white"/>
</g>
<defs>
<clipPath id="clip0_3_162">
<rect width="21.725" height="18.4663" fill="white" transform="translate(0.830139 0.0864258)"/>
</clipPath>
</defs>
</svg>
